# xmcd
#
# Track frame offsets:
#	150
#	18022
#	31350
#	48475
#	65492
#	85645
#	102840
#	119495
#	132485
#	155047
#	173692
#	189727
#	204220
#
# Disc length: 2937 seconds
#
# Revision: 1
# Processed by: cddbd v1.5PL3 Copyright (c) Steve Scherf et al.
# Submitted via: audiograbber 1.82.02
#
DISCID=a90b770d
DTITLE=Paveier - Joot Jelaunt
DYEAR=1996
DGENRE=Kölsch - Karneval
TTITLE0=Rashida
TTITLE1=Maach et hück
TTITLE2=Joot jelaunt
TTITLE3=Pflaumen-Rap (Im Garten sind die Pflaumen reif)
TTITLE4=Kumm liehn m'r ens die Schnüßje
TTITLE5=Nur noch einmol met dir durch d'r Rän jonn
TTITLE6=Lang schon vorbei
TTITLE7=Morje hür ich op
TTITLE8=Kleine Sonja
TTITLE9=Die Welt ist schön
TTITLE10=Blechbert
TTITLE11=Hilly Billy
TTITLE12=Naaks
EXTD=
EXTT0=
EXTT1=
EXTT2=
EXTT3=
EXTT4=
EXTT5=
EXTT6=
EXTT7=
EXTT8=
EXTT9=
EXTT10=
EXTT11=
EXTT12=
PLAYORDER=
